<svg id="Layer_1" data-name="Layer 1" xmlns="http://www.w3.org/2000/svg" viewBox="0 0 218.05 191.77"><defs><style>.cls-1,.cls-2{fill:none;stroke:#fff;}.cls-1{stroke-width:2px;}.cls-2{stroke-width:6px;}.cls-3{fill:#fff;}</style></defs><title>logo_bile</title><path class="cls-1" d="M91,94a5.2,5.2,0,0,0,6.32-.69"/><path class="cls-1" d="M112.67,165.15s-6,7.49-14.3,1.12c-1.76-1.36-8.6-44.48-10.47-68.7-.09-1.22,3.26-2.81,2.79-3.93C80.34,69.14,70.44,28.78,71.85,29.09c10.48,2.29,26.29,2.18,26.29,2.18,3.09,34.62-1.85,60.47-.79,62.05.75,1.12,4,2.63,4.41,3.94C107.37,117.84,112.67,165.15,112.67,165.15Z"/><path class="cls-1" d="M79.13,59.79c11.93,28.61,19.44,12,19.81,4.48"/><circle class="cls-2" cx="95.88" cy="95.88" r="92.88"/><path class="cls-3" d="M200.79,55l-1.27-3.41h-5.35L192.87,55h-4l7-18.55h1.8l7,18.55Zm-5.38-6.72h2.83l-1.39-3.72h0Z"/><path class="cls-3" d="M218,40.14h-3.91V55h-3.7V40.14h-3.91v-3.7H218Z"/></svg>